<svg xmlns="http://www.w3.org/2000/svg" width="16" height="16" id="game"><path d="M1.888 292.9a.284.284 0 0 0-.203.077l-1.32 1.248a.283.283 0 0 0-.098.181.301.301 0 0 0 .088.217l.608.643v1.601c0 .145.12.266.265.266H3.08a.267.267 0 0 0 .263-.266v-.282l.33-.089a.272.272 0 0 0 .192-.33l-.11-.412.295-.28a.284.284 0 0 0 .012-.398l-.625-.66-.06-.062-.034-.13v-.267a.261.261 0 0 0-.131-.222l-.1-.371a.272.272 0 0 0-.33-.19l-.415.111-.282-.299a.28.28 0 0 0-.197-.086zm-.02.268c.009-.008.016-.007.024.002l.184.193-.577.155zm.983.262c.005-.001.005-.003.006.002l.07.261h-1.06zm-1.623.527h1.769l.083.31v2.6H1.228zm-.265.069v.855l-.416-.44c-.009-.008-.007-.015.001-.023zm1.187.46a.132.132 0 0 0-.107.061l-.53.793a.133.133 0 0 0 0 .146l.53.795a.133.133 0 0 0 .22 0l.53-.794a.133.133 0 0 0 0-.147l-.53-.793a.133.133 0 0 0-.113-.06zm.002.373.371.555-.371.553-.37-.553zm1.37.033.347.366c.008.008.008.017 0 .025l-.193.181zm-.179.358.264.984c.001.005.002.005-.002.006l-.262.07z" color="#000" font-family="sans-serif" font-weight="400" overflow="visible" transform="translate(-.01 -1107.022) scale(3.77953)" style="line-height:normal;text-indent:0;text-align:start;text-decoration-line:none;text-decoration-style:solid;text-decoration-color:#000;text-transform:none;block-progression:tb;white-space:normal;isolation:auto;mix-blend-mode:normal;solid-color:#000;solid-opacity:1"></path></svg>