<svg xmlns="http://www.w3.org/2000/svg" viewBox="0 0 64 64" id="poker"><polygon fill="#78b9eb" points="29 53 55 53 55 56 29 56 25 56 25 53 29 53"></polygon><polygon fill="#78b9eb" points="59 56 59 59 29 59 29 56 55 56 59 56"></polygon><polygon fill="#78b9eb" points="59 50 59 53 55 53 29 53 29 50 31 50 59 50"></polygon><polygon fill="#78b9eb" points="61 47 61 50 59 50 31 50 31 47 61 47"></polygon><polygon fill="#78b9eb" points="15.17 35 33 35 33 10.36 42.05 13.65 31.79 41.84 15.31 35.84 15.17 35"></polygon><path fill="#78b9eb" d="M18,8l-2,4,2,4,2-4ZM28,32l2-4-2-4-2,4ZM13,17V5H33V35H15.17L15,34l3-4-3-3-2,1.67Z"></path><path fill="#006df0" d="M42.96,13.23a1.037,1.037,0,0,0-.57-.52L34,9.66V5a1,1,0,0,0-1-1H13a1,1,0,0,0-1,1V16H10a1.015,1.015,0,0,0-.98.78L7.1,25.44,2.38,29.22A1,1,0,0,0,2,30V40a1,1,0,0,0,.14.51l2.83,4.71L3.01,61.88l1.98.24,2-17a.99.99,0,0,0-.13-.63L4,39.72V30.48l4.62-3.7a1,1,0,0,0,.36-.56L10.8,18H12V28.2L8.36,31.23A.992.992,0,0,0,8,32v3h2V32.47l4.94-4.12,1.74,1.74L14.2,33.4a1.042,1.042,0,0,0-.19.76L15,40.08v2.51l-1.71,1.7A1.033,1.033,0,0,0,13,45V62h2V45.41l1.71-1.7A1.033,1.033,0,0,0,17,43V40a.808.808,0,0,0-.01-.16l-.42-2.48,14.88,5.42a.974.974,0,0,0,.34.06,1.023,1.023,0,0,0,.42-.09,1.037,1.037,0,0,0,.52-.57L42.99,13.99A1,1,0,0,0,42.96,13.23ZM16.25,34l2.55-3.4a1,1,0,0,0-.09-1.31l-3-3a1.011,1.011,0,0,0-1.35-.06l-.36.3V6H32V34Zm14.94,6.56L18.67,36H32.85ZM34,32.84V11.79l6.77,2.46Z"></path><path fill="#006df0" d="M20.9 11.553l-2-4a1.042 1.042 0 0 0-1.79 0l-2 4a1 1 0 0 0 0 .894l2 4a1 1 0 0 0 1.79 0l2-4A1 1 0 0 0 20.9 11.553zM18 13.764L17.118 12 18 10.236 18.882 12zM30.89 27.55l-2-4a1.039 1.039 0 0 0-1.78 0l-2 4a.956.956 0 0 0 0 .9l2 4a1 1 0 0 0 1.78 0l2-4A.956.956 0 0 0 30.89 27.55zM28 29.76L27.12 28 28 26.24 28.88 28zM61 46H31a1 1 0 0 0-1 1v2H29a1 1 0 0 0-1 1v2H25a1 1 0 0 0-1 1v3a1 1 0 0 0 1 1h3v2a1 1 0 0 0 1 1H59a1 1 0 0 0 1-1V56a1 1 0 0 0-1-1H56V54h3a1 1 0 0 0 1-1V51h1a1 1 0 0 0 1-1V47A1 1 0 0 0 61 46zM26 55V54H54v1zm32 2v1H30V57zm0-5H30V51H58zm2-3H32V48H60z"></path></svg>